<?xml version="1.0" encoding="utf-8"?>
<!-- Generator: Adobe Illustrator 19.0.0, SVG Export Plug-In . SVG Version: 6.00 Build 0)  -->
<svg version="1.1" id="Layer_1" xmlns="http://www.w3.org/2000/svg" xmlns:xlink="http://www.w3.org/1999/xlink" x="0px" y="0px"
	 viewBox="0 0 458 223" style="enable-background:new 0 0 458 223;" xml:space="preserve">
<style type="text/css">
	.st0{fill:none;stroke:#000000;stroke-miterlimit:10;}
	.st1{fill:none;}
</style>
<path id="XMLID_30_" class="st0" d="M157.7,135.8c-2.5,0.1-5.1,0.2-7.7,0.2c-0.3,0-0.6,0-1,0L157.7,135.8z"/>
<path id="XMLID_4_" class="st0" d="M-343.2-32.8"/>
<path id="XMLID_162_" class="st0" d="M78.5,61.2l0,0.2C78.8,61.6,78.7,61.5,78.5,61.2z"/>
<path id="XMLID_36_" class="st0" d="M246.1,1c-1.3-1-20.5-2.1-31.5,1c-9.8,2.7-25,8.2-25,8.2c-2.7-0.9-6.2-1.5-10.5-2
	c-4.3-0.5-9.3-0.7-15.1-0.7c-21.3,0-43.5,5.4-61,14.2c0,0-3.2-3-21.7,0.4c-3.6,0.7-8.5,2-18.5,7c-7.6,3.8-6.1,3.1-6.3,5.3
	c-0.3,2.3,5,9.9,9.9,14.9c3.6,3.7,6.2,6.3,8.1,8.1c2.7,2.7,3.8,3.7,4.2,4l0-0.2c0.2,0.3,0.3,0.4,0,0.2l2.1,22.3
	c1.3,8.9,3.9,16.4,7.3,22.6l0-0.1c12.1,21.9,35.3,29,57.7,29.8c0.1,0.1,0.2,0.2,0.3,0.3c0.9-0.1,1.8-0.6,2.7,0.4h0.3l8.7-0.5
	c1-0.1,2-0.2,2.9-0.4l-2.9,0c-2.5,0.1-5.1,0.2-7.7,0.2c-0.3,0-0.6,0-1,0l8.7-0.2c2-0.1,3.9-0.3,5.8-0.5c5.2-0.5,11-1.1,17-2
	c10.3-1.5,21.3-3.9,31.1-8.1c5.8-2.5,11.2-5.6,15.9-9.7c5.3-4.6,9.5-10.2,12.3-17.3c1.3-3.3,2.2-7,2.8-10.9c0.8-6-6.9-11-7.7-18.7
	l-0.5-5.5l-1.8-18.9c0,0,4-5,10.1-17.8c0.8-2.1,1.5-4.1,2-6C248,9,246.9,1.7,246.1,1z M148.7,136L148.7,136l0.2,0L148.7,136z"/>
<path id="XMLID_29_" class="st0" d="M146,136.2c-0.1,0-0.2,0-0.3,0c-22.4-0.8-45.6-8-57.7-29.9c0,0,0,0,0-0.1l0-0.1
	c12.1,21.9,35.3,29,57.7,29.8C145.8,136,145.9,136.1,146,136.2z"/>
<polygon id="XMLID_28_" class="st0" points="148.9,136 148.7,136 148.7,136 "/>
<path id="XMLID_27_" class="st0" d="M157.7,135.8c-2.5,0.1-5.1,0.2-7.7,0.2c-0.3,0-0.6,0-1,0L157.7,135.8z"/>
<path id="XMLID_25_" class="st0" d="M163.5,135.4c-0.9,0.1-1.9,0.2-2.8,0.4l0,0l-2.9,0.1C159.6,135.7,161.6,135.5,163.5,135.4z"/>
<polygon id="XMLID_23_" class="st0" points="148.9,136 148.7,136 148.7,136 "/>
<line id="XMLID_117_" class="st0" x1="160.6" y1="135.7" x2="160.6" y2="135.7"/>
<path id="XMLID_125_" class="st0" d="M230.7,161.9c3.9-9.1,10.6-21.6,20-28.5"/>
<path id="XMLID_8_" class="st0" d="M250.7,133.5"/>
<path id="XMLID_5_" class="st0" d="M179.4,135.3"/>
<path id="XMLID_24_" class="st0" d="M170.8,167l-2.3,5c-18.3,13.5-63.7-9.5-63.7-9.5c-21.8-8.7-30.3-34.9-17.9-54.8l1-1.6l0-0.1
	c12.1,21.9,35.3,29,57.7,29.8c0.1,0.1,0.2,0.1,0.3,0.2C160.5,146,171.6,157,170.8,167z"/>
<path id="XMLID_116_" class="st0" d="M230.7,161.9c3.9-9.1,10.6-21.6,20-28.5"/>
<path id="XMLID_17_" class="st0" d="M236.8,200.7c0,0,0.4,0,0.4,0c-3.5,0-6.7,0-9.6,0c-11.4,0-18.7-1.7-19.5-4.5
	c-1.9-6.8,18.5-23.1,18.5-23.1s0.3-1.2,1-3.1c0.7-2,1.7-4.8,3.1-8c-1,0.6-2.1,1.2-3.1,1.8c-20,11.7-39.6,18.9-49.5,10.2
	c-13.1-11.4-2.4-32.4,1.3-38.8c0.7-1.2,1-1.6,1-1.6"/>
<path id="XMLID_9_" class="st0" d="M371.3,61.2c-0.8-1.1-1.6-2.2-2.4-3.3c-24.4-32.3-69.9-44.7-112.8-39l-11.5,1.7"/>
<path id="XMLID_13_" class="st0" d="M375.9,68.8c4,7.5,7.1,15.8,8.9,24.9"/>
<path id="XMLID_12_" class="st0" d="M214.6,223"/>
<path id="XMLID_6_" class="st1" d="M214.1,223"/>
<path id="XMLID_1_" class="st1" d="M214.1,223"/>
<g id="XMLID_103_">
	<path id="XMLID_118_" class="st0" d="M230.4,161.9c-1.4,3.2-2.1,6-3.1,8v-6.2C228.3,163.2,229.4,162.6,230.4,161.9z"/>
	<path id="XMLID_26_" class="st0" d="M450,209.6l-221,8.1h-1.7v-17.3c3,0,6.3-0.1,9.8-0.3c-2.1,2.1-2.8,4.4-1.8,7
		c4.2,10,57.2,0,57.2,0c49.6,0,101.8-40.2,101.8-89.8v-3.5c0-5.2-4.2-16-8.9-20h-0.5c-1.9-9-4.9-17.5-9-24.9c0,0,0,0-4.6-7.6
		c-0.8-1.1-1.6-2.2-2.4-3.3l13.3-0.5c22.1-0.9,22.1-0.9,22.1-0.9l23.7-0.9l1.3,9L450,209.6z"/>
	<polygon id="XMLID_105_" class="st0" points="458,218.7 227.3,218.7 227.3,217.7 229,217.7 450,209.7 429.3,64.7 436,64.7 	"/>
	<polygon id="XMLID_104_" class="st0" points="227.3,217.5 227.3,218.7 0,218.7 22,64.7 28.7,64.7 7.9,209.6 	"/>
</g>
<g id="XMLID_101_">
	<polygon id="XMLID_20_" class="st0" points="148.9,136 148.7,136 148.7,136 	"/>
	<path id="XMLID_19_" class="st0" d="M157.7,135.8c-2.5,0.1-5.1,0.2-7.7,0.2c-0.3,0-0.6,0-1,0L157.7,135.8z"/>
	<path id="XMLID_22_" class="st0" d="M207.9,196c0.8,2.8,8.4,4.3,19.4,4.3v17.2l-219.4-8l20.8-145l1.3-9l44.4,1.8
		c2.7,2.7,3.8,3.7,4.2,4l2.1,22.3c1.3,8.9,3.9,16.4,7.3,22.6l0-0.1c12.1,21.9,35.3,29,57.7,29.8c0.1,0.1,0.2,0.2,0.3,0.3
		c0.9-0.1,1.8-0.6,2.7,0.4h0.3l8.7-0.5c1-0.1,2-0.2,2.9-0.4l-2.9,0c2-0.1,3.9-0.3,5.8-0.5c5.2-0.5,11-1.1,17-2c0,0-0.4,0.7-1.1,1.9
		c-3.7,6.4-14.5,27.4-1.5,38.8c9.9,8.6,29.4,1.5,49.4-10.3v6.2c0,1.9-0.9,3.1-0.9,3.1S206.1,189.3,207.9,196z"/>
</g>
<rect id="XMLID_3_" y="218.5" class="st0" width="458" height="4.5"/>
<path id="XMLID_10_" class="st0" d="M394.6,117.2c0,49.6-52.3,89.8-101.9,89.8c0,0-53.1,10-57.3,0c-1.1-2.5-0.3-4.8,1.8-7
	c13.6-13.5,83.1-20.4,101.6-34.2c12.2-9.1,30.3-41.5,39.8-59.7"/>
<path id="XMLID_7_" class="st0" d="M385.1,93.5"/>
</svg>
